<svg width="18" height="30" viewBox="0 0 18 30" fill="none" xmlns="http://www.w3.org/2000/svg">
<path d="M15.0001 28.73C14.8685 28.7307 14.738 28.7055 14.6162 28.6558C14.4943 28.606 14.3835 28.5327 14.2901 28.44L2.93009 17.12C2.36829 16.5575 2.05273 15.795 2.05273 15C2.05273 14.205 2.36829 13.4425 2.93009 12.88L14.2401 1.55999C14.4311 1.37168 14.689 1.26695 14.9572 1.26882C15.2253 1.2707 15.4818 1.37903 15.6701 1.56999C15.8584 1.76094 15.9631 2.01888 15.9613 2.28706C15.9594 2.55523 15.8511 2.81168 15.6601 2.99999L4.34009 14.29C4.24637 14.3829 4.17197 14.4936 4.1212 14.6154C4.07043 14.7373 4.0443 14.868 4.0443 15C4.0443 15.132 4.07043 15.2627 4.1212 15.3846C4.17197 15.5064 4.24637 15.617 4.34009 15.71L15.6601 27C15.7538 27.0929 15.8282 27.2036 15.879 27.3254C15.9298 27.4473 15.9559 27.578 15.9559 27.71C15.9559 27.842 15.9298 27.9727 15.879 28.0946C15.8282 28.2164 15.7538 28.327 15.6601 28.42C15.487 28.6027 15.2513 28.7134 15.0001 28.73Z" fill="#FFE3B8" stroke="#FFE3B8" stroke-width="2.112"/>
</svg>
