<svg width="123" height="121" viewBox="0 0 123 121" fill="none" xmlns="http://www.w3.org/2000/svg">
<path fill-rule="evenodd" clip-rule="evenodd" d="M90.54 38.2493C92.77 37.4993 95.12 38.6893 96.67 40.5493H115.13C115.197 40.5493 115.263 40.5625 115.325 40.5881C115.387 40.6137 115.443 40.6513 115.491 40.6987C115.538 40.746 115.576 40.8022 115.601 40.8641C115.627 40.926 115.64 40.9923 115.64 41.0593V45.9193C115.64 45.9863 115.627 46.0526 115.601 46.1145C115.576 46.1763 115.538 46.2325 115.491 46.2799C115.443 46.3273 115.387 46.3648 115.325 46.3905C115.263 46.4161 115.197 46.4293 115.13 46.4293H111.9V62.6193H108.17V46.4293H98.11C97.5893 47.7143 96.7821 48.8635 95.75 49.7893V62.6193H92V52.4093C89.4227 53.7368 86.7484 54.8667 84 55.7893C81.0543 56.8862 78.0496 57.8177 75 58.5793C72.251 59.1877 69.3977 59.1427 66.6692 58.448C63.9408 57.7533 61.4133 56.4282 59.29 54.5793C58.0625 53.5315 56.8972 52.4129 55.8 51.2293L55.46 50.8693L52.46 68.6193C54.7645 70.1679 57.1699 71.561 59.66 72.7893C67.44 76.4193 73.84 79.4193 75.21 91.6393C75.46 93.7793 75.35 106.319 75.21 112.479H86C85.787 112.308 85.6159 112.089 85.4998 111.842C85.3837 111.594 85.3256 111.323 85.33 111.049V109.159C84.0771 109.144 82.8807 108.635 81.9993 107.745C81.118 106.854 80.6225 105.652 80.62 104.399V68.3993C80.6253 67.1385 81.1285 65.9308 82.02 65.0393C82.9115 64.1477 84.1192 63.6445 85.38 63.6393H86.47C86.4603 63.7156 86.4603 63.7929 86.47 63.8693L87.66 68.4093C87.9502 69.6733 88.5674 70.8389 89.45 71.7893C89.8612 72.1943 90.3512 72.5107 90.8896 72.7188C91.4279 72.9269 92.0033 73.0224 92.58 72.9993H97.35V75.5493C97.35 75.9593 99.27 76.2793 99.67 76.2793H106C106.095 76.2806 106.19 76.263 106.279 76.2274C106.367 76.1918 106.448 76.139 106.516 76.072C106.584 76.005 106.637 75.9252 106.674 75.8371C106.711 75.7491 106.73 75.6547 106.73 75.5593V72.9993H111.73C112.319 73.0039 112.902 72.8894 113.445 72.6625C113.988 72.4357 114.48 72.1012 114.89 71.6793C115.775 70.7327 116.372 69.5532 116.61 68.2793L117.61 63.7993C117.62 63.7196 117.62 63.639 117.61 63.5593H118.12C119.381 63.5645 120.588 64.0677 121.48 64.9593C122.372 65.8508 122.875 67.0585 122.88 68.3193V104.369C122.877 105.622 122.382 106.824 121.501 107.715C120.619 108.605 119.423 109.114 118.17 109.129V110.999C118.174 111.273 118.116 111.544 118 111.792C117.884 112.039 117.713 112.258 117.5 112.429H122.88V120.009H0V112.429H19.83C21.24 108.639 22.69 104.599 24.11 100.539C27.04 92.1493 29.85 83.5393 31.91 76.6993C30.6142 75.1669 29.5342 73.4645 28.7 71.6393C27.7442 69.5652 27.4374 67.2507 27.82 64.9993L32.15 43.1793C30.6 43.0993 28.81 42.6393 27.35 43.2793C24.52 44.5193 20.35 49.7993 17.88 52.2793L14.57 55.6293C12.02 58.2093 10.32 61.0693 6.42 60.7593C1.58 60.3793 -1.88 54.9993 1.53 50.8693L9.16 43.1493C12.83 39.4193 16.32 35.0293 20.85 32.4693C24.49 30.4093 28.45 28.9993 35 29.2793C37.4 29.2793 39.94 29.5493 42.34 29.7793L45.14 30.0193C56.14 30.7293 61.26 36.5193 65.26 41.0193C67.03 43.0193 68.55 44.7193 70.2 45.5093C70.98 45.8793 72.2 45.3593 73.59 44.7793L83.76 40.9993L90.54 38.2793V38.2493ZM61.15 112.469C61.29 105.529 61.44 95.7393 61.33 93.8493C61.24 92.4993 60.33 88.9293 58.91 88.2793C57.0059 87.4545 55.0599 86.7302 53.08 86.1093C50.33 85.1993 48.08 84.2793 45.36 83.5293C43.36 90.1093 40.68 98.0493 37.79 105.619L35.06 112.469H61.15ZM114.02 112.469H89.49C89.7048 112.299 89.8771 112.081 89.9933 111.833C90.1096 111.585 90.1666 111.313 90.16 111.039V109.149H113.35V110.999C113.343 111.273 113.4 111.545 113.517 111.793C113.633 112.041 113.805 112.259 114.02 112.429V112.469ZM88.91 100.239C88.6766 100.239 88.4528 100.147 88.2877 99.9815C88.1227 99.8165 88.03 99.5927 88.03 99.3593C88.03 99.1259 88.1227 98.9021 88.2877 98.737C88.4528 98.572 88.6766 98.4793 88.91 98.4793H114.73C114.963 98.4793 115.187 98.572 115.352 98.737C115.517 98.9021 115.61 99.1259 115.61 99.3593C115.61 99.5927 115.517 99.8165 115.352 99.9815C115.187 100.147 114.963 100.239 114.73 100.239H88.91ZM88.91 91.7293C88.6766 91.7293 88.4528 91.6366 88.2877 91.4715C88.1227 91.3065 88.03 91.0827 88.03 90.8493C88.03 90.6159 88.1227 90.3921 88.2877 90.227C88.4528 90.062 88.6766 89.9693 88.91 89.9693H114.73C114.963 89.9693 115.187 90.062 115.352 90.227C115.517 90.3921 115.61 90.6159 115.61 90.8493C115.61 91.0827 115.517 91.3065 115.352 91.4715C115.187 91.6366 114.963 91.7293 114.73 91.7293H88.91ZM88.91 83.2193C88.6766 83.2193 88.4528 83.1266 88.2877 82.9615C88.1227 82.7965 88.03 82.5727 88.03 82.3393C88.03 82.1059 88.1227 81.8821 88.2877 81.717C88.4528 81.552 88.6766 81.4593 88.91 81.4593H114.73C114.963 81.4593 115.187 81.552 115.352 81.717C115.517 81.8821 115.61 82.1059 115.61 82.3393C115.61 82.5727 115.517 82.7965 115.352 82.9615C115.187 83.1266 114.963 83.2193 114.73 83.2193H88.91ZM115.64 64.4693H88.5L89.4 67.8993C89.6131 68.8618 90.0752 69.7514 90.74 70.4793C90.975 70.7281 91.2589 70.9258 91.5737 71.06C91.8886 71.1942 92.2277 71.262 92.57 71.2593H111.74C112.098 71.261 112.453 71.1901 112.783 71.0509C113.113 70.9117 113.411 70.707 113.66 70.4493C114.3 69.745 114.729 68.8754 114.9 67.9393L115.64 64.4693ZM44.82 0.709281C47.7031 -0.277226 50.839 -0.233476 53.6934 0.833076C56.5478 1.89963 58.9441 3.92298 60.4738 6.55833C62.0036 9.19369 62.5722 12.278 62.0827 15.2856C61.5932 18.2932 60.076 21.038 57.7895 23.0522C55.503 25.0665 52.5888 26.2256 49.5435 26.332C46.4982 26.4384 43.5102 25.4855 41.0888 23.6356C38.6673 21.7858 36.9622 19.1536 36.2641 16.1875C35.5659 13.2214 35.9179 10.105 37.26 7.36928C38.0196 5.81609 39.0784 4.4282 40.3758 3.28529C41.6731 2.14239 43.1834 1.26697 44.82 0.709281Z" fill="black"/>
</svg>
