<svg width="20" height="20" viewBox="0 0 20 20" fill="none" xmlns="http://www.w3.org/2000/svg">
<path d="M18 2C17.5926 1.62529 17.0532 1.42749 16.5002 1.44999C15.9471 1.47248 15.4256 1.71344 15.05 2.12L8.17 9L7 13L11 11.83L17.88 5C18.0888 4.81334 18.2579 4.58662 18.3774 4.3333C18.4968 4.07999 18.5642 3.80525 18.5754 3.52541C18.5866 3.24557 18.5414 2.96633 18.4426 2.70429C18.3437 2.44225 18.1932 2.20274 18 2Z" fill="#FFE3B8"/>
<path d="M18 2C17.5926 1.62529 17.0532 1.42749 16.5002 1.44999C15.9471 1.47248 15.4256 1.71344 15.05 2.12L8.17 9L7 13L11 11.83L17.88 5C18.0888 4.81334 18.2579 4.58662 18.3774 4.3333C18.4968 4.07999 18.5642 3.80525 18.5754 3.52541C18.5866 3.24557 18.5414 2.96633 18.4426 2.70429C18.3437 2.44225 18.1932 2.20274 18 2Z" stroke="black" stroke-width="2" stroke-linecap="round" stroke-linejoin="round"/>
<path d="M10 1H2C1.73478 1 1.48043 1.10536 1.29289 1.29289C1.10536 1.48043 1 1.73478 1 2V18C1 18.2652 1.10536 18.5196 1.29289 18.7071C1.48043 18.8946 1.73478 19 2 19H18C18.2652 19 18.5196 18.8946 18.7071 18.7071C18.8946 18.5196 19 18.2652 19 18V10" stroke="black" stroke-width="2" stroke-linecap="round" stroke-linejoin="round"/>
</svg>
