<svg width="21" height="18" viewBox="0 0 21 18" fill="none" xmlns="http://www.w3.org/2000/svg">
<path d="M19.71 8.29L16.71 5.29C16.5217 5.10169 16.2663 4.99591 16 4.99591C15.7337 4.99591 15.4783 5.10169 15.29 5.29C15.1017 5.4783 14.9959 5.7337 14.9959 6C14.9959 6.2663 15.1017 6.52169 15.29 6.71L16.59 8H5C4.73478 8 4.48043 8.10536 4.29289 8.29289C4.10536 8.48043 4 8.73478 4 9C4 9.26521 4.10536 9.51957 4.29289 9.70711C4.48043 9.89464 4.73478 10 5 10H16.59L15.29 11.29C15.1963 11.383 15.1219 11.4936 15.0711 11.6154C15.0203 11.7373 14.9942 11.868 14.9942 12C14.9942 12.132 15.0203 12.2627 15.0711 12.3846C15.1219 12.5064 15.1963 12.617 15.29 12.71C15.383 12.8037 15.4936 12.8781 15.6154 12.9289C15.7373 12.9797 15.868 13.0058 16 13.0058C16.132 13.0058 16.2627 12.9797 16.3846 12.9289C16.5064 12.8781 16.617 12.8037 16.71 12.71L19.71 9.71C19.8037 9.61704 19.8781 9.50643 19.9289 9.38458C19.9797 9.26272 20.0058 9.13201 20.0058 9C20.0058 8.86799 19.9797 8.73728 19.9289 8.61542C19.8781 8.49356 19.8037 8.38296 19.71 8.29Z" fill="#FFE3B8"/>
<path d="M11 18H2C1.46957 18 0.960859 17.7893 0.585786 17.4142C0.210714 17.0391 0 16.5304 0 16V2C0 1.46957 0.210714 0.960859 0.585786 0.585786C0.960859 0.210714 1.46957 0 2 0H11C11.5304 0 12.0391 0.210714 12.4142 0.585786C12.7893 0.960859 13 1.46957 13 2V5C13 5.26522 12.8946 5.51957 12.7071 5.70711C12.5196 5.89464 12.2652 6 12 6C11.7348 6 11.4804 5.89464 11.2929 5.70711C11.1054 5.51957 11 5.26522 11 5V2H2V16H11V13C11 12.7348 11.1054 12.4804 11.2929 12.2929C11.4804 12.1054 11.7348 12 12 12C12.2652 12 12.5196 12.1054 12.7071 12.2929C12.8946 12.4804 13 12.7348 13 13V16C13 16.5304 12.7893 17.0391 12.4142 17.4142C12.0391 17.7893 11.5304 18 11 18Z" fill="black"/>
</svg>
